<svg width="336" height="128" viewBox="0 0 336 128" fill="none" xmlns="http://www.w3.org/2000/svg">
<rect x="-2" y="-9" width="338" height="144" fill="url(#paint0_linear_321_425)"/>
<path d="M29.7107 82.7575V60.7794H27.7156V61.8732H26.0876V60.7794H24.2496V61.9639H22.2539V60.7794H20.4122V61.9724H18.4202V60.7794H16.4777V82.7575H29.7107Z" fill="#078C7C"/>
<path d="M50.6444 84.1713V47.953H47.3558V49.7554H44.6733V47.953H41.6444V49.9054H38.3561V47.953H35.3213V49.9194H32.0385V47.953H28.8367V84.1713H50.6444Z" fill="#2D529A"/>
<path d="M20.6498 88.6159V68.2621H17.3018V70.0973H14.5703V68.2621H11.4868V70.2498H8.13831V68.2621H5.04857V70.2639H1.70634V68.2621H-1.55353V88.6159H20.6498Z" fill="#23005B"/>
<path d="M64.4945 87.2963V69.9682H61.6442V71.5307H59.3187V69.9682H56.6934V71.6602H53.8426V69.9682H51.2124V71.6726H48.3671V69.9682H45.5915V87.2963H64.4945Z" fill="#23005B"/>
<path d="M304.736 82.7575V60.7794H306.731V61.8732H308.359V60.7794H310.197V61.9639H312.193V60.7794H314.034V61.9724H316.026V60.7794H317.969V82.7575H304.736Z" fill="#078C7C"/>
<path d="M283.802 84.1713V47.953H287.091V49.7554H289.773V47.953H292.802V49.9054H296.09V47.953H299.125V49.9194H302.408V47.953H305.61V84.1713H283.802Z" fill="#2D529A"/>
<path d="M313.797 88.6159V68.2621H317.144V70.0973H319.876V68.2621H322.96V70.2498H326.308V68.2621H329.398V70.2639H332.74V68.2621H336V88.6159H313.797Z" fill="#005B54"/>
<path d="M269.952 87.2963V69.9682H272.802V71.5307H275.128V69.9682H277.753V71.6602H280.604V69.9682H283.234V71.6726H286.079V69.9682H288.855V87.2963H269.952Z" fill="#005B54"/>
<path d="M166.635 94.39C196.791 94.39 221.238 71.2453 221.238 42.695C221.238 14.1446 196.791 -9 166.635 -9C136.478 -9 112.031 14.1446 112.031 42.695C112.031 71.2453 136.478 94.39 166.635 94.39Z" fill="#FFFFEE"/>
<path d="M178.205 48.1V45.6078C178.205 45.6078 178.205 45.6078 176.775 45.2175C176.889 37.892 173.914 34.5007 170.594 32.9293C167.275 31.3578 166.806 29.624 166.806 29.624C166.806 29.624 166.338 31.3578 163.019 32.9293C159.7 34.5007 156.724 37.8916 156.838 45.2175C155.408 45.6078 155.408 45.6078 155.408 45.6078V48.1L153.977 48.6416V83.6259H166.806H179.636V48.6416L178.205 48.1Z" fill="#511B94"/>
<path d="M166.978 24.2603H166.635V33.7418H166.978V24.2603Z" fill="#511B94"/>
<path d="M168.062 22.2338C168.142 22.3991 168.189 22.5815 168.189 22.7753C168.189 23.498 167.57 24.0839 166.806 24.0839C166.043 24.0839 165.424 23.498 165.424 22.7753C165.424 22.5815 165.471 22.3991 165.551 22.2338C165.23 22.5376 165.032 22.9568 165.032 23.4204C165.032 24.3481 165.827 25.1001 166.806 25.1001C167.787 25.1001 168.58 24.3481 168.58 23.4204C168.581 22.9568 168.383 22.538 168.062 22.2338Z" fill="#511B94"/>
<path d="M198.659 84.1273V59.2816L197.498 58.8414V56.8175C197.498 56.8175 197.498 56.8175 196.336 56.5009C196.429 50.5522 194.011 47.7979 191.316 46.5221C188.621 45.2464 188.241 43.8381 188.241 43.8381C188.241 43.8381 187.861 45.2464 185.165 46.5221C182.47 47.7979 180.053 50.5522 180.147 56.5009C178.984 56.8175 178.984 56.8175 178.984 56.8175V58.8414L177.822 59.2816V84.1278L198.659 84.1273Z" fill="#511B94"/>
<path d="M189.26 37.8366C189.325 37.9708 189.363 38.1191 189.363 38.2763C189.363 38.8635 188.861 39.339 188.241 39.339C187.621 39.339 187.118 38.8635 187.118 38.2763C187.118 38.1191 187.157 37.9708 187.221 37.8366C186.961 38.0833 186.8 38.4242 186.8 38.8004C186.8 39.5538 187.445 40.1644 188.241 40.1644C189.036 40.1644 189.681 39.5534 189.681 38.8004C189.681 38.4242 189.52 38.0833 189.26 37.8366Z" fill="#511B94"/>
<path d="M224.298 84.1274V64.14L223.137 63.7003V61.6763C223.137 61.6763 223.137 61.6763 221.975 61.3593C222.067 55.4105 219.651 52.6567 216.956 51.3805C214.26 50.1048 213.88 48.6965 213.88 48.6965C213.88 48.6965 213.5 50.1048 210.804 51.3805C208.109 52.6567 205.693 55.4105 205.785 61.3593C204.624 61.6763 204.624 61.6763 204.624 61.6763V63.7003L203.462 64.14V84.1274H224.298Z" fill="#511B94"/>
<path d="M214.899 42.6949C214.965 42.8292 215.002 42.9774 215.002 43.1347C215.002 43.7218 214.5 44.1978 213.88 44.1978C213.26 44.1978 212.757 43.7218 212.757 43.1347C212.757 42.9774 212.796 42.8292 212.86 42.6954C212.6 42.9421 212.439 43.2825 212.439 43.6588C212.439 44.4121 213.085 45.0227 213.88 45.0227C214.675 45.0227 215.321 44.4117 215.321 43.6588C215.32 43.2825 215.159 42.9417 214.899 42.6949Z" fill="#511B94"/>
<path d="M245.81 84.1274V71.5801L244.433 71.059V68.6618C244.433 68.6618 244.433 68.6618 243.057 68.2864C243.167 61.24 240.305 57.9783 237.112 56.4669C233.919 54.9555 233.469 53.2878 233.469 53.2878C233.469 53.2878 233.018 54.9555 229.825 56.4669C226.633 57.9783 223.771 61.24 223.88 68.2864C222.505 68.6618 222.505 68.6618 222.505 68.6618V71.059L221.128 71.5801V84.1274H245.81Z" fill="#511B94"/>
<path d="M234.677 46.1801C234.754 46.339 234.799 46.5141 234.799 46.7008C234.799 47.3961 234.204 47.9599 233.469 47.9599C232.735 47.9599 232.14 47.3961 232.14 46.7008C232.14 46.5141 232.186 46.339 232.262 46.1801C231.953 46.4724 231.763 46.8754 231.763 47.3211C231.763 48.2138 232.526 48.9369 233.469 48.9369C234.412 48.9369 235.176 48.2138 235.176 47.3211C235.176 46.8754 234.986 46.4719 234.677 46.1801Z" fill="#511B94"/>
<path d="M194.852 43.1824L195.566 43.8591V84.1274H205.733V43.8591L206.448 43.1824V41.9638H207.121V40.4605H206.262V39.0003H205.018V38.1038H204.302V20.3049L204.66 19.9661V18.3546H205.504V16.7018H202.9V15.2663H203.558V14.4805H204.188V13.2074H202.442V10.2L201.899 9.68523V8.22244L201.269 7.62632V4.90399H200.03V7.62632L199.401 8.22244V9.68523L198.857 10.2V13.2074H197.112V14.4805H197.741V15.2663H198.4V16.7018H195.796V18.3546H196.639V19.9661L196.997 20.3049V38.1038H196.282V39.0003H195.037V40.4605H194.178V41.9638H194.852V43.1824Z" fill="#511B94"/>
<path d="M200.767 1.56458H200.532V8.05958H200.767V1.56458Z" fill="#511B94"/>
<path d="M201.51 0.176453C201.565 0.289795 201.597 0.415068 201.597 0.547584C201.597 1.04314 201.173 1.44409 200.65 1.44409C200.126 1.44409 199.703 1.04271 199.703 0.547584C199.703 0.415068 199.735 0.290217 199.789 0.176875C199.57 0.384811 199.434 0.672428 199.434 0.989871C199.434 1.62518 199.978 2.14033 200.649 2.14033C201.321 2.14033 201.865 1.62518 201.865 0.989871C201.866 0.672002 201.729 0.384814 201.51 0.176453Z" fill="#511B94"/>
<path d="M244.807 66.7163L245.355 67.2353V84.1275H253.15V67.2353L253.698 66.7163V65.7823H254.214V64.6293H253.556V63.5099H252.601V62.8222H252.053V49.1751L252.327 48.9156V47.6795H252.974V46.4127H250.978V45.3117H251.482V44.7096H251.965V43.733H250.627V41.4274L250.211 41.0328V39.9109L249.727 39.4541V37.3663H248.777V39.4541L248.295 39.9109V41.0328L247.878 41.4274V43.733H246.539V44.7096H247.022V45.3117H247.527V46.4127H245.53V47.6795H246.177V48.9156L246.451 49.1751V62.8222H245.903V63.5099H244.949V64.6293H244.291V65.7823H244.807V66.7163Z" fill="#511B94"/>
<path d="M249.343 34.8063H249.162V39.7865H249.343V34.8063Z" fill="#511B94"/>
<path d="M249.912 33.7418C249.954 33.8283 249.978 33.9246 249.978 34.026C249.978 34.406 249.653 34.7133 249.252 34.7133C248.852 34.7133 248.526 34.4056 248.526 34.026C248.526 33.9246 248.551 33.8287 248.593 33.7418C248.425 33.9011 248.321 34.1218 248.321 34.3647C248.321 34.8522 248.738 35.2472 249.252 35.2472C249.768 35.2472 250.184 34.8517 250.184 34.3647C250.184 34.1218 250.08 33.9011 249.912 33.7418Z" fill="#511B94"/>
<path d="M155.732 84.1274V59.3422L154.57 58.9024V56.8785C154.57 56.8785 154.569 56.8785 153.408 56.5614C153.501 50.6127 151.084 47.8588 148.389 46.5827C145.693 45.3069 145.313 43.8987 145.313 43.8987C145.313 43.8987 144.933 45.3069 142.238 46.5827C139.543 47.8588 137.126 50.6127 137.219 56.5614C136.057 56.8785 136.057 56.8785 136.057 56.8785V58.9024L134.895 59.3422V84.1274H155.732Z" fill="#511B94"/>
<path d="M144.294 37.8975C144.229 38.0317 144.191 38.1795 144.191 38.3368C144.191 38.9239 144.694 39.3999 145.314 39.3999C145.934 39.3999 146.436 38.9239 146.436 38.3368C146.436 38.1795 146.398 38.0317 146.333 37.8975C146.593 38.1442 146.754 38.4846 146.754 38.8609C146.754 39.6146 146.11 40.2248 145.314 40.2248C144.518 40.2248 143.873 39.6142 143.873 38.8609C143.873 38.4846 144.034 38.1442 144.294 37.8975Z" fill="#511B94"/>
<path d="M130.093 84.1274V64.201L128.931 63.7608V61.7369C128.931 61.7369 128.931 61.7369 127.769 61.4203C127.862 55.4711 125.445 52.7172 122.749 51.4415C120.054 50.1653 119.674 48.7575 119.674 48.7575C119.674 48.7575 119.294 50.1653 116.599 51.4415C113.903 52.7172 111.486 55.4711 111.58 61.4203C110.418 61.7369 110.418 61.7369 110.418 61.7369V63.7608L109.255 64.201V84.1274H130.093Z" fill="#511B94"/>
<path d="M118.655 42.7563C118.59 42.8906 118.552 43.0389 118.552 43.1961C118.552 43.7832 119.054 44.2588 119.675 44.2588C120.294 44.2588 120.797 43.7832 120.797 43.1961C120.797 43.0389 120.759 42.8906 120.694 42.7563C120.954 43.0031 121.115 43.3435 121.115 43.7202C121.115 44.4735 120.47 45.0841 119.675 45.0841C118.879 45.0841 118.234 44.4731 118.234 43.7202C118.233 43.3435 118.395 43.0031 118.655 42.7563Z" fill="#511B94"/>
<path d="M112.425 84.1274V71.641L111.048 71.1194V68.7222C111.048 68.7222 111.048 68.7222 109.672 68.3468C109.782 61.3009 106.92 58.0391 103.727 56.5277C100.535 55.0164 100.084 53.3486 100.084 53.3486C100.084 53.3486 99.6342 55.0164 96.4414 56.5277C93.2486 58.0391 90.3861 61.3009 90.4964 68.3468C89.1201 68.7222 89.1201 68.7222 89.1201 68.7222V71.1194L87.7438 71.641V84.1274H112.425Z" fill="#511B94"/>
<path d="M98.8768 46.2405C98.8002 46.3995 98.7548 46.575 98.7548 46.7617C98.7548 47.457 99.3502 48.0203 100.085 48.0203C100.819 48.0203 101.414 47.457 101.414 46.7617C101.414 46.575 101.369 46.3995 101.292 46.2405C101.601 46.5333 101.791 46.9364 101.791 47.3821C101.791 48.2743 101.027 48.9974 100.084 48.9974C99.1418 48.9974 98.3776 48.2743 98.3776 47.3821C98.3781 46.9364 98.5685 46.5328 98.8768 46.2405Z" fill="#511B94"/>
<path d="M127.106 43.2434L127.821 43.92V84.1274H137.988V43.92L138.702 43.2434V42.0251H139.375V40.5214H138.517V39.0612H137.272V38.1643H136.556V20.3658L136.914 20.0274V18.4155H137.758V16.7627H135.154V15.3272H135.812V14.5414H136.442V13.2683H134.697V10.2613L134.153 9.74657V8.28335L133.523 7.68724V4.9649H132.285V7.68724L131.655 8.28335V9.74657L131.111 10.2613V13.2683H129.366V14.5414H129.995V15.3272H130.654V16.7627H128.05V18.4155H128.894V20.0274L129.251 20.3658V38.1643H128.536V39.0612H127.291V40.5214H126.433V42.0251H127.106V43.2434Z" fill="#511B94"/>
<path d="M133.021 1.62555H132.786V8.12055H133.021V1.62555Z" fill="#511B94"/>
<path d="M132.044 0.237732C131.989 0.351074 131.957 0.475921 131.957 0.608864C131.957 1.10399 132.381 1.50537 132.904 1.50537C133.427 1.50537 133.851 1.10399 133.851 0.608864C133.851 0.475921 133.819 0.351074 133.764 0.237732C133.984 0.445667 134.12 0.733282 134.12 1.0503C134.12 1.68604 133.575 2.20119 132.904 2.20119C132.233 2.20119 131.689 1.68604 131.689 1.0503C131.688 0.732856 131.825 0.445667 132.044 0.237732Z" fill="#511B94"/>
<path d="M79.8558 66.7775L80.4036 67.2961V84.1273H88.1988V67.2961L88.747 66.7775V65.8426H89.2632V64.6901H88.6048V63.5707H87.6506V62.883H87.102V49.2364L87.3761 48.976V47.7403H88.0233V46.4731H86.0268V45.3725H86.5313V44.77H87.0142V43.7938H85.6762V41.4882L85.2589 41.0932V39.9721L84.776 39.5149V37.4275H83.8264V39.5149L83.3439 39.9721V41.0932L82.9271 41.4882V43.7938H81.5886V44.77H82.0711V45.3725H82.5761V46.4731H80.5791V47.7403H81.2263V48.976L81.5008 49.2364V62.883H80.9522V63.5707H79.9981V64.6901H79.3396V65.8426H79.8558V66.7775Z" fill="#511B94"/>
<path d="M84.3917 34.8671H84.2112V39.8474H84.3917V34.8671Z" fill="#511B94"/>
<path d="M83.6419 33.8027C83.6 33.8896 83.5753 33.9855 83.5753 34.0873C83.5753 34.467 83.9002 34.7746 84.3012 34.7746C84.7022 34.7746 85.0272 34.4665 85.0272 34.0873C85.0272 33.9855 85.0024 33.8896 84.9606 33.8027C85.1289 33.9625 85.2329 34.1828 85.2329 34.4261C85.2329 34.9135 84.8156 35.3081 84.3012 35.3081C83.7868 35.3081 83.3696 34.9131 83.3696 34.4261C83.3696 34.1828 83.4735 33.9625 83.6419 33.8027Z" fill="#511B94"/>
<path d="M166.777 79.9589C98.8848 79.9589 38.2044 72.0675 -2 59.6775V131.947H335.554V59.6779C295.35 72.068 234.669 79.9589 166.777 79.9589Z" fill="#511B94"/>
<path d="M335.553 96.5818H-2V131.948H335.553V96.5818Z" fill="#9875C5"/>
<path d="M166.777 79.9589C98.8848 79.9589 38.2044 72.0675 -2 59.6775V70.2916C38.2044 82.6812 98.8848 90.573 166.777 90.573C234.669 90.573 295.349 82.6812 335.554 70.2916V59.6775C295.35 72.068 234.669 79.9589 166.777 79.9589Z" fill="#39128D"/>
<path d="M230.106 135H103.94C101.615 135 100.312 132.465 101.746 130.733L117.611 111.578C118.458 110.555 119.756 109.957 121.129 109.957H213.872C215.292 109.957 216.628 110.597 217.471 111.679L232.35 130.795C233.706 132.538 232.392 135 230.106 135Z" fill="#0E4E6A"/>
<path d="M119.982 114.233C120.86 115.564 122.586 116.155 124.159 115.662L130.77 113.695L135.319 115.297L136.665 110.504L130.321 109.169L119.982 114.233Z" fill="#AD5E00"/>
<path d="M139.88 104.604L121.734 110.739L119.982 114.233L129.712 110.959L135.191 112.779L129.424 118.603L117.036 123.661L113.459 130.797L164.943 113.874L139.88 104.604Z" fill="#8C4900"/>
<path d="M214.995 114.701C214.118 116.032 212.391 116.622 210.818 116.129L203.75 113.695L199.2 115.296L197.854 110.504L204.197 109.169L214.995 114.701Z" fill="#AD5E00"/>
<path d="M194.638 104.604L213.243 111.206L214.995 114.701L204.806 110.959L199.327 112.779L205.095 118.603L217.483 123.661L221.06 130.797L169.576 113.874L194.638 104.604Z" fill="#8C4900"/>
<path d="M114.644 94.7607C113.988 96.3884 114.844 98.2125 116.559 98.8435L161.201 115.262C162.587 115.772 166.532 115.171 167.979 114.847L171.709 115.6L215.83 132.455C217.767 133.195 219.984 132.492 221.06 130.797L169.254 110.467C167.951 109.957 166.522 109.811 165.135 110.049L159.821 110.959L114.644 94.7607Z" fill="#873700"/>
<path d="M159.821 110.959L114.644 94.7602C113.988 96.3879 114.844 98.212 116.559 98.8426L155.829 113.286L163.714 110.292L159.821 110.959Z" fill="#AF5F00"/>
<path d="M221.06 130.797L178.507 114.099L172.967 116.081L215.83 132.455C217.767 133.195 219.985 132.492 221.06 130.797Z" fill="#AD5E00"/>
<path d="M217.959 98.8435L170.898 116.152C169.512 116.662 167.995 116.761 166.548 116.437L162.81 115.6L118.688 132.455C116.751 133.195 114.534 132.492 113.458 130.797L165.265 110.467C166.567 109.957 167.996 109.811 169.384 110.049L174.697 110.959L219.874 94.7607C220.531 96.3884 219.675 98.2121 217.959 98.8435Z" fill="#AF5F00"/>
<path d="M112.314 94.0626L160.183 111.414C160.183 111.414 165.117 109.169 174.473 111.414C182.676 108.502 222.213 94.0626 222.213 94.0626L210.038 75.074L167.259 89.2699L126.732 75.074L112.314 94.0626Z" fill="url(#paint1_linear_321_425)"/>
<path d="M111.827 93.8862L160.478 111.521C160.478 111.521 166.185 109.169 173.858 111.627C182.061 108.715 222.62 93.9003 222.62 93.9003L222.214 92.6067L210.038 75.074L167.259 89.2699L126.733 75.074L112.314 92.6067L111.827 93.8862Z" fill="#FFB200"/>
<path d="M112.314 92.6067L160.183 109.958C160.183 109.958 165.117 107.713 174.473 109.958C182.676 107.046 222.213 92.6067 222.213 92.6067L210.038 73.6177L167.259 87.814L126.732 73.6177L114.84 89.2793L112.314 92.6067Z" fill="#F2E4A7"/>
<path d="M160.183 109.958C160.183 109.958 162.503 106.072 167.259 106.072C172.016 106.072 174.473 109.958 174.473 109.958C174.473 109.958 166.111 107.729 160.183 109.958Z" fill="#D8C573"/>
<path d="M205.17 68.7645L210.038 73.6173L222.214 92.6067L217.345 87.7531L205.17 68.7645Z" fill="#FFFFEE"/>
<path d="M117.408 87.8443L167.259 105.226L217.345 87.7531L205.17 68.7645L167.259 81.5044L131.827 68.8552L117.408 87.8443Z" fill="#F4F2C6"/>
<path d="M117.408 87.8442L167.259 105.226V81.5043L131.827 68.8552L117.408 87.8442Z" fill="#F4F2C6"/>
<path d="M126.733 73.6172L131.827 68.8552L117.408 87.8442L112.314 92.6067L126.733 73.6172Z" fill="#FFFFEE"/>
<path d="M167.259 105.226C167.259 105.226 162.866 99.7877 154.973 96.8442C147.079 93.9003 132.679 93.0707 120.452 88.9052C124.835 82.5772 133.882 69.5885 133.882 69.5885C133.882 69.5885 145.988 71.7931 153.239 73.6172C162.298 75.8973 167.259 81.5043 167.259 81.5043V105.226Z" fill="#FFFFEE"/>
<path d="M167.259 105.226C167.259 105.226 171.652 99.7878 179.546 96.8443C187.439 93.9004 202.147 92.9553 214.374 88.7902C210.933 82.8134 202.717 69.589 202.717 69.589C202.717 69.589 188.546 71.8477 181.28 73.6177C174.014 75.3882 167.26 81.5048 167.26 81.5048V105.226H167.259Z" fill="#FFFFEE"/>
<path d="M170.031 98.6044L169.159 81.7276L169.225 81.6735C169.29 81.6189 175.941 76.1879 184.053 74.3736C190.8 72.8639 200.89 71.497 200.992 71.4833L201.127 71.4655L201.181 71.5835C201.244 71.7173 207.414 85.0264 208.772 87.5966L208.86 87.7645L208.676 87.8314C206.951 88.4574 201.539 89.2917 195.81 90.175C189.619 91.129 182.603 92.2104 179.545 93.1559C173.799 94.9323 170.353 98.2866 170.319 98.3202L170.031 98.6044ZM169.526 81.8763L170.35 97.82C171.301 96.9793 174.551 94.3426 179.435 92.833C182.519 91.8798 189.247 90.8422 195.753 89.8396C201.269 88.9895 206.489 88.1847 208.362 87.5775C206.92 84.7848 201.514 73.1439 200.908 71.8383C199.685 72.0062 190.443 73.293 184.136 74.7042C176.538 76.4035 170.234 81.3104 169.526 81.8763Z" fill="#F2E4A7"/>
<path d="M163.782 98.3202C163.748 98.2866 160.302 94.9323 154.556 93.1559C151.498 92.2104 144.482 91.129 138.291 90.175C132.562 89.2917 127.151 88.4574 125.426 87.8314L125.241 87.7645L125.33 87.5966C126.688 85.0264 132.858 71.7173 132.92 71.5835L132.975 71.4655L133.11 71.4833C133.211 71.497 143.301 72.8639 150.048 74.3736C158.16 76.1879 164.811 81.6189 164.877 81.6735L164.943 81.7276L164.071 98.6044L163.782 98.3202ZM149.966 74.7038C143.659 73.2926 134.417 72.0057 133.194 71.8379C132.588 73.1434 127.183 84.7848 125.74 87.577C127.612 88.1842 132.833 88.9887 138.349 89.8392C144.855 90.8422 151.583 91.8793 154.668 92.8325C159.55 94.3422 162.801 96.9789 163.752 97.8196L164.575 81.8759C163.867 81.3104 157.564 76.4035 149.966 74.7038Z" fill="#F2E4A7"/>
<g opacity="0.49">
<path d="M173.858 109.169C177.739 107.655 181.635 106.177 185.532 104.703L197.241 100.321L208.98 96.0116L214.861 93.8832L220.755 91.7881L214.925 94.0379L209.081 96.2549L197.372 100.636L185.633 104.945C181.714 106.368 177.793 107.786 173.858 109.169Z" fill="#44415D"/>
<path d="M173.002 108.015C176.883 106.501 180.778 105.022 184.676 103.548L196.385 99.1664L208.124 94.8578L214.004 92.729L219.898 90.6339L214.068 92.8841L208.225 95.1006L196.515 99.4822L184.776 103.79C180.857 105.214 176.937 106.632 173.002 108.015Z" fill="#44415D"/>
<path d="M171.625 107.189C175.506 105.675 179.402 104.196 183.299 102.722L195.008 98.3403L206.747 94.0311L212.627 91.9028L218.522 89.8077L212.692 92.0579L206.848 94.2745L195.139 98.656L183.399 102.964C179.481 104.387 175.56 105.805 171.625 107.189Z" fill="#44415D"/>
<path d="M170.19 106.072C174.071 104.558 177.966 103.079 181.864 101.605L193.573 97.2234L205.312 92.9147L211.193 90.7859L217.087 88.6908L211.257 90.941L205.413 93.1576L193.704 97.5391L181.964 101.847C178.046 103.271 174.125 104.689 170.19 106.072Z" fill="#44415D"/>
<path d="M160.344 109.169C156.463 107.655 152.568 106.177 148.67 104.703L136.961 100.321L125.222 96.0116L119.342 93.8832L113.448 91.7881L119.278 94.0379L125.122 96.2549L136.831 100.636L148.57 104.945C152.488 106.368 156.409 107.786 160.344 109.169Z" fill="#44415D"/>
<path d="M161.201 108.015C157.319 106.501 153.424 105.022 149.527 103.548L137.818 99.1664L126.079 94.8578L120.198 92.729L114.304 90.6339L120.135 92.8841L125.978 95.1006L137.687 99.4822L149.427 103.79C153.345 105.214 157.265 106.632 161.201 108.015Z" fill="#44415D"/>
<path d="M162.577 107.189C158.696 105.675 154.8 104.196 150.903 102.722L139.194 98.3403L127.455 94.0311L121.575 91.9028L115.681 89.8077L121.511 92.0579L127.355 94.2745L139.064 98.656L150.803 102.964C154.722 104.387 158.642 105.805 162.577 107.189Z" fill="#44415D"/>
<path d="M164.012 106.072C160.131 104.558 156.236 103.079 152.338 101.605L140.629 97.2234L128.89 92.9147L123.01 90.7859L117.116 88.6908L122.946 90.941L128.79 93.1576L140.499 97.5391L152.239 101.847C156.156 103.271 160.077 104.689 164.012 106.072Z" fill="#44415D"/>
</g>
<path d="M166.374 80.6223L165.627 103.515V124.916L167.602 122.927L169.576 124.916L169.375 103.065L168.303 80.6223H166.374Z" fill="#FFB200"/>
<path d="M169.375 103.065L168.303 80.6223H166.374L165.627 103.515V104.682L169.386 104.498L169.375 103.065Z" fill="#FFCE00"/>
<path d="M24.3891 72.3212H22.2016L22.2153 70.5985H24.3891C24.8858 70.5985 25.3051 70.4846 25.6469 70.2567C25.9887 70.0243 26.2485 69.6825 26.4262 69.2313C26.6039 68.7756 26.6928 68.2219 26.6928 67.5702V67.1122C26.6928 66.62 26.6427 66.1871 26.5424 65.8134C26.4422 65.4351 26.294 65.1184 26.0981 64.8632C25.9021 64.608 25.6583 64.4165 25.3666 64.2889C25.0795 64.1613 24.7491 64.0975 24.3754 64.0975H22.1606V62.368H24.3754C25.0499 62.368 25.6651 62.482 26.2211 62.7098C26.7817 62.9377 27.2648 63.2635 27.6703 63.6874C28.0805 64.1112 28.3972 64.6125 28.6205 65.1913C28.8439 65.7701 28.9555 66.4149 28.9555 67.1259V67.5702C28.9555 68.2766 28.8439 68.9214 28.6205 69.5048C28.3972 70.0835 28.0805 70.5848 27.6703 71.0087C27.2648 71.4279 26.784 71.7515 26.228 71.9794C25.672 72.2072 25.059 72.3212 24.3891 72.3212ZM23.4662 62.368V72.3212H21.2377V62.368H23.4662ZM29.8989 68.6981V68.5546C29.8989 68.0122 29.9763 67.5132 30.1313 67.0575C30.2862 66.5972 30.5141 66.1984 30.8149 65.8612C31.1157 65.524 31.4848 65.2619 31.9223 65.0751C32.3598 64.8837 32.8611 64.788 33.4262 64.788C34.0004 64.788 34.5063 64.8837 34.9438 65.0751C35.3858 65.2619 35.7573 65.524 36.058 65.8612C36.3588 66.1984 36.5867 66.5972 36.7416 67.0575C36.8966 67.5132 36.9741 68.0122 36.9741 68.5546V68.6981C36.9741 69.2359 36.8966 69.7349 36.7416 70.1952C36.5867 70.6509 36.3588 71.0497 36.058 71.3915C35.7573 71.7287 35.3881 71.9908 34.9506 72.1776C34.5131 72.3645 34.0095 72.4579 33.4399 72.4579C32.8748 72.4579 32.3712 72.3645 31.9291 72.1776C31.4871 71.9908 31.1157 71.7287 30.8149 71.3915C30.5141 71.0497 30.2862 70.6509 30.1313 70.1952C29.9763 69.7349 29.8989 69.2359 29.8989 68.6981ZM32.0385 68.5546V68.6981C32.0385 68.9898 32.0613 69.2632 32.1069 69.5184C32.157 69.7736 32.2368 69.9969 32.3461 70.1884C32.4555 70.3798 32.5991 70.5302 32.7768 70.6395C32.9591 70.7443 33.1801 70.7968 33.4399 70.7968C33.6996 70.7968 33.9184 70.7443 34.0961 70.6395C34.2739 70.5302 34.4174 70.3798 34.5268 70.1884C34.6362 69.9969 34.7136 69.7736 34.7592 69.5184C34.8093 69.2632 34.8344 68.9898 34.8344 68.6981V68.5546C34.8344 68.2675 34.8093 67.9986 34.7592 67.7479C34.7136 67.4927 34.6362 67.2671 34.5268 67.0712C34.4174 66.8752 34.2716 66.7225 34.0893 66.6132C33.9116 66.5038 33.6905 66.4491 33.4262 66.4491C33.171 66.4491 32.9545 66.5038 32.7768 66.6132C32.5991 66.7225 32.4555 66.8752 32.3461 67.0712C32.2368 67.2671 32.157 67.4927 32.1069 67.7479C32.0613 67.9986 32.0385 68.2675 32.0385 68.5546ZM42.0121 70.5575V67.3856C42.0121 67.1623 41.978 66.9709 41.9096 66.8114C41.8412 66.6519 41.7342 66.5266 41.5883 66.4354C41.4425 66.3443 41.2534 66.2987 41.0209 66.2987C40.825 66.2987 40.6541 66.3329 40.5082 66.4012C40.367 66.4696 40.2576 66.5676 40.1801 66.6952C40.1072 66.8228 40.0707 66.98 40.0707 67.1669H37.9379C37.9379 66.8342 38.0131 66.5243 38.1635 66.2372C38.3139 65.9501 38.5281 65.6971 38.8061 65.4784C39.0886 65.2596 39.4259 65.091 39.8178 64.9725C40.2097 64.8495 40.6495 64.788 41.1371 64.788C41.7159 64.788 42.2309 64.8859 42.6821 65.0819C43.1378 65.2733 43.4978 65.5627 43.7621 65.9501C44.0265 66.3329 44.1586 66.816 44.1586 67.3993V70.496C44.1586 70.9426 44.1837 71.2935 44.2338 71.5487C44.2885 71.7994 44.366 72.0181 44.4662 72.205V72.3212H42.3129C42.2127 72.107 42.1375 71.8427 42.0873 71.5282C42.0372 71.2092 42.0121 70.8856 42.0121 70.5575ZM42.2787 67.8094L42.2924 68.9852H41.2328C40.9959 68.9852 40.7908 69.0149 40.6176 69.0741C40.449 69.1333 40.3123 69.2154 40.2075 69.3202C40.1026 69.4205 40.0252 69.5389 39.975 69.6757C39.9295 69.8078 39.9067 69.9537 39.9067 70.1132C39.9067 70.2635 39.9431 70.4003 40.0161 70.5233C40.089 70.6418 40.1892 70.7352 40.3168 70.8036C40.4444 70.8719 40.5925 70.9061 40.7612 70.9061C41.0392 70.9061 41.2761 70.8514 41.4721 70.7421C41.6726 70.6327 41.8276 70.5005 41.937 70.3456C42.0463 70.1861 42.101 70.038 42.101 69.9012L42.6137 70.7899C42.5317 70.9722 42.4314 71.1613 42.3129 71.3573C42.1944 71.5487 42.044 71.7287 41.8618 71.8973C41.6795 72.0614 41.4584 72.1958 41.1987 72.3007C40.9435 72.4055 40.6358 72.4579 40.2758 72.4579C39.811 72.4579 39.3894 72.3645 39.0112 72.1776C38.6329 71.9862 38.3299 71.7242 38.102 71.3915C37.8787 71.0588 37.767 70.676 37.767 70.243C37.767 69.8557 37.8377 69.5116 37.9789 69.2108C38.1202 68.91 38.3321 68.6548 38.6147 68.4452C38.9018 68.2356 39.2618 68.0783 39.6948 67.9735C40.1277 67.8641 40.6336 67.8094 41.2123 67.8094H42.2787ZM54.3168 69.6962C54.3168 69.5275 54.2918 69.3772 54.2416 69.245C54.1915 69.1083 54.1004 68.983 53.9682 68.869C53.836 68.7551 53.6492 68.6412 53.4077 68.5272C53.1661 68.4087 52.8494 68.288 52.4575 68.1649C52.0108 68.0191 51.5847 67.855 51.1791 67.6727C50.7781 67.4859 50.4203 67.2694 50.1059 67.0233C49.7914 66.7772 49.5431 66.4901 49.3608 66.162C49.183 65.8339 49.0942 65.451 49.0942 65.0135C49.0942 64.5897 49.1876 64.2069 49.3745 63.8651C49.5613 63.5233 49.8233 63.2316 50.1606 62.9901C50.4978 62.744 50.8943 62.5572 51.35 62.4296C51.8058 62.2974 52.3071 62.2313 52.8539 62.2313C53.5831 62.2313 54.2234 62.3612 54.7748 62.621C55.3308 62.8762 55.7638 63.2362 56.0737 63.701C56.3836 64.1613 56.5385 64.6968 56.5385 65.3075H54.3237C54.3237 65.0386 54.2667 64.8016 54.1528 64.5966C54.0434 64.3869 53.8748 64.2229 53.6469 64.1044C53.4236 63.9859 53.1433 63.9266 52.8061 63.9266C52.478 63.9266 52.2023 63.9768 51.9789 64.077C51.7602 64.1727 51.5939 64.3049 51.4799 64.4735C51.3705 64.6421 51.3159 64.8267 51.3159 65.0272C51.3159 65.1867 51.3569 65.3326 51.4389 65.4647C51.5255 65.5923 51.6485 65.7131 51.808 65.827C51.9721 65.9364 52.1726 66.0412 52.4096 66.1415C52.6466 66.2417 52.9177 66.3374 53.2231 66.4286C53.7563 66.5972 54.228 66.7841 54.6381 66.9891C55.0528 67.1942 55.4015 67.4266 55.684 67.6864C55.9666 67.9462 56.1785 68.2401 56.3198 68.5682C56.4656 68.8964 56.5385 69.2678 56.5385 69.6825C56.5385 70.1246 56.4519 70.5165 56.2787 70.8583C56.1101 71.2001 55.864 71.4917 55.5405 71.7333C55.2215 71.9703 54.8386 72.1503 54.392 72.2733C53.9454 72.3964 53.4464 72.4579 52.895 72.4579C52.3937 72.4579 51.8992 72.3941 51.4116 72.2665C50.9239 72.1343 50.4819 71.9338 50.0854 71.6649C49.6935 71.396 49.379 71.0542 49.142 70.6395C48.9096 70.2203 48.7934 69.7235 48.7934 69.1493H51.0219C51.0219 69.4501 51.0652 69.7053 51.1518 69.9149C51.2384 70.12 51.3614 70.2863 51.5209 70.4139C51.685 70.5415 51.8832 70.6327 52.1157 70.6874C52.3481 70.7421 52.6078 70.7694 52.895 70.7694C53.2276 70.7694 53.4965 70.7238 53.7016 70.6327C53.9112 70.537 54.0662 70.4071 54.1664 70.243C54.2667 70.079 54.3168 69.8967 54.3168 69.6962ZM61.228 72.4579C60.6401 72.4579 60.1137 72.3645 59.6489 72.1776C59.184 71.9908 58.7898 71.7333 58.4662 71.4052C58.1472 71.0725 57.9034 70.6897 57.7348 70.2567C57.5662 69.8238 57.4819 69.3612 57.4819 68.869V68.6093C57.4819 68.0578 57.5593 67.5497 57.7143 67.0848C57.8692 66.62 58.0948 66.2167 58.3911 65.8749C58.6918 65.5285 59.061 65.2619 59.4985 65.0751C59.936 64.8837 60.435 64.788 60.9955 64.788C61.5196 64.788 61.9868 64.8746 62.3969 65.0477C62.8071 65.2163 63.1534 65.4602 63.436 65.7792C63.7185 66.0936 63.9327 66.4742 64.0786 66.9208C64.2289 67.3628 64.3041 67.8596 64.3041 68.411V69.286H58.3432V67.912H62.2123V67.7479C62.2123 67.4882 62.1645 67.2603 62.0688 67.0643C61.9776 66.8684 61.8409 66.718 61.6586 66.6132C61.4809 66.5038 61.2553 66.4491 60.9819 66.4491C60.7221 66.4491 60.5056 66.5038 60.3325 66.6132C60.1593 66.7225 60.0203 66.8775 59.9155 67.078C59.8152 67.274 59.7423 67.5041 59.6967 67.7684C59.6511 68.0282 59.6284 68.3085 59.6284 68.6093V68.869C59.6284 69.1561 59.6671 69.4182 59.7446 69.6552C59.822 69.8921 59.936 70.0949 60.0864 70.2635C60.2368 70.4322 60.419 70.5643 60.6332 70.66C60.8474 70.7557 61.0912 70.8036 61.3647 70.8036C61.7019 70.8036 62.0232 70.7398 62.3286 70.6122C62.6339 70.48 62.8982 70.2749 63.1215 69.9969L64.1196 71.1385C63.9692 71.3573 63.7573 71.5692 63.4838 71.7743C63.2149 71.9748 62.8914 72.1389 62.5131 72.2665C62.1349 72.3941 61.7065 72.4579 61.228 72.4579ZM67.5922 61.8212V72.3212H65.4526V61.8212H67.5922ZM72.6166 72.4579C72.0287 72.4579 71.5024 72.3645 71.0375 72.1776C70.5727 71.9908 70.1785 71.7333 69.8549 71.4052C69.5359 71.0725 69.2921 70.6897 69.1235 70.2567C68.9549 69.8238 68.8705 69.3612 68.8705 68.869V68.6093C68.8705 68.0578 68.948 67.5497 69.103 67.0848C69.2579 66.62 69.4835 66.2167 69.7797 65.8749C70.0805 65.5285 70.4496 65.2619 70.8871 65.0751C71.3246 64.8837 71.8237 64.788 72.3842 64.788C72.9083 64.788 73.3754 64.8746 73.7856 65.0477C74.1957 65.2163 74.5421 65.4602 74.8246 65.7792C75.1072 66.0936 75.3214 66.4742 75.4672 66.9208C75.6176 67.3628 75.6928 67.8596 75.6928 68.411V69.286H69.7319V67.912H73.601V67.7479C73.601 67.4882 73.5532 67.2603 73.4575 67.0643C73.3663 66.8684 73.2296 66.718 73.0473 66.6132C72.8696 66.5038 72.644 66.4491 72.3705 66.4491C72.1108 66.4491 71.8943 66.5038 71.7211 66.6132C71.548 66.7225 71.409 66.8775 71.3041 67.078C71.2039 67.274 71.131 67.5041 71.0854 67.7684C71.0398 68.0282 71.017 68.3085 71.017 68.6093V68.869C71.017 69.1561 71.0558 69.4182 71.1332 69.6552C71.2107 69.8921 71.3246 70.0949 71.475 70.2635C71.6254 70.4322 71.8077 70.5643 72.0219 70.66C72.2361 70.7557 72.4799 70.8036 72.7534 70.8036C73.0906 70.8036 73.4119 70.7398 73.7172 70.6122C74.0226 70.48 74.2869 70.2749 74.5102 69.9969L75.5082 71.1385C75.3578 71.3573 75.1459 71.5692 74.8725 71.7743C74.6036 71.9748 74.28 72.1389 73.9018 72.2665C73.5235 72.3941 73.0952 72.4579 72.6166 72.4579ZM78.9809 61.8212V72.3212H76.8412V61.8212H78.9809ZM84.436 70.5575V67.3856C84.436 67.1623 84.4018 66.9709 84.3334 66.8114C84.2651 66.6519 84.158 66.5266 84.0121 66.4354C83.8663 66.3443 83.6772 66.2987 83.4448 66.2987C83.2488 66.2987 83.0779 66.3329 82.9321 66.4012C82.7908 66.4696 82.6814 66.5676 82.6039 66.6952C82.531 66.8228 82.4946 66.98 82.4946 67.1669H80.3618C80.3618 66.8342 80.437 66.5243 80.5873 66.2372C80.7377 65.9501 80.9519 65.6971 81.2299 65.4784C81.5125 65.2596 81.8497 65.091 82.2416 64.9725C82.6336 64.8495 83.0733 64.788 83.561 64.788C84.1398 64.788 84.6547 64.8859 85.1059 65.0819C85.5616 65.2733 85.9217 65.5627 86.186 65.9501C86.4503 66.3329 86.5825 66.816 86.5825 67.3993V70.496C86.5825 70.9426 86.6075 71.2935 86.6577 71.5487C86.7123 71.7994 86.7898 72.0181 86.8901 72.205V72.3212H84.7368C84.6365 72.107 84.5613 71.8427 84.5112 71.5282C84.461 71.2092 84.436 70.8856 84.436 70.5575ZM84.7026 67.8094L84.7162 68.9852H83.6567C83.4197 68.9852 83.2146 69.0149 83.0414 69.0741C82.8728 69.1333 82.7361 69.2154 82.6313 69.3202C82.5265 69.4205 82.449 69.5389 82.3989 69.6757C82.3533 69.8078 82.3305 69.9537 82.3305 70.1132C82.3305 70.2635 82.367 70.4003 82.4399 70.5233C82.5128 70.6418 82.6131 70.7352 82.7407 70.8036C82.8683 70.8719 83.0164 70.9061 83.185 70.9061C83.463 70.9061 83.7 70.8514 83.8959 70.7421C84.0965 70.6327 84.2514 70.5005 84.3608 70.3456C84.4702 70.1861 84.5248 70.038 84.5248 69.9012L85.0375 70.7899C84.9555 70.9722 84.8552 71.1613 84.7368 71.3573C84.6183 71.5487 84.4679 71.7287 84.2856 71.8973C84.1033 72.0614 83.8823 72.1958 83.6225 72.3007C83.3673 72.4055 83.0597 72.4579 82.6996 72.4579C82.2348 72.4579 81.8133 72.3645 81.435 72.1776C81.0567 71.9862 80.7537 71.7242 80.5258 71.3915C80.3025 71.0588 80.1909 70.676 80.1909 70.243C80.1909 69.8557 80.2615 69.5116 80.4028 69.2108C80.544 68.91 80.756 68.6548 81.0385 68.4452C81.3256 68.2356 81.6856 68.0783 82.1186 67.9735C82.5515 67.8641 83.0574 67.8094 83.6362 67.8094H84.7026ZM90.0688 61.8212V72.3212H87.936V61.8212H90.0688ZM89.7885 68.3632L89.2553 68.3768C89.2553 67.8573 89.3191 67.3811 89.4467 66.9481C89.5789 66.5106 89.7657 66.1301 90.0073 65.8065C90.2488 65.483 90.5382 65.2323 90.8754 65.0546C91.2172 64.8768 91.5932 64.788 92.0034 64.788C92.3679 64.788 92.7006 64.8404 93.0014 64.9452C93.3022 65.05 93.562 65.2163 93.7807 65.4442C93.9995 65.6721 94.1681 65.9706 94.2866 66.3397C94.405 66.7089 94.4643 67.1578 94.4643 67.6864V72.3212H92.3178V67.6727C92.3178 67.3583 92.2722 67.1122 92.1811 66.9344C92.0945 66.7567 91.9669 66.6314 91.7983 66.5585C91.6342 66.4856 91.4337 66.4491 91.1967 66.4491C90.9187 66.4491 90.6886 66.4992 90.5063 66.5995C90.324 66.6952 90.1804 66.8296 90.0756 67.0028C89.9708 67.176 89.8956 67.3788 89.85 67.6112C89.809 67.8436 89.7885 68.0943 89.7885 68.3632ZM22.3041 78.368H24.1498L26.5424 85.4843L28.9282 78.368H30.7739L27.2875 88.3212H25.7905L22.3041 78.368ZM21.2377 78.368H23.1176L23.4662 85.744V88.3212H21.2377V78.368ZM29.9604 78.368H31.8471V88.3212H29.6118V85.744L29.9604 78.368ZM37.309 86.5575V83.3856C37.309 83.1623 37.2748 82.9709 37.2065 82.8114C37.1381 82.6519 37.031 82.5266 36.8852 82.4354C36.7394 82.3443 36.5502 82.2987 36.3178 82.2987C36.1218 82.2987 35.9509 82.3329 35.8051 82.4012C35.6638 82.4696 35.5545 82.5676 35.477 82.6952C35.4041 82.8228 35.3676 82.98 35.3676 83.1669H33.2348C33.2348 82.8342 33.31 82.5243 33.4604 82.2372C33.6108 81.9501 33.825 81.6971 34.103 81.4784C34.3855 81.2596 34.7228 81.091 35.1147 80.9725C35.5066 80.8495 35.9464 80.788 36.434 80.788C37.0128 80.788 37.5278 80.8859 37.9789 81.0819C38.4347 81.2733 38.7947 81.5627 39.059 81.9501C39.3233 82.3329 39.4555 82.816 39.4555 83.3993V86.496C39.4555 86.9426 39.4806 87.2935 39.5307 87.5487C39.5854 87.7994 39.6629 88.0181 39.7631 88.205V88.3212H37.6098C37.5095 88.107 37.4343 87.8427 37.3842 87.5282C37.3341 87.2092 37.309 86.8856 37.309 86.5575ZM37.5756 83.8094L37.5893 84.9852H36.5297C36.2927 84.9852 36.0877 85.0149 35.9145 85.0741C35.7459 85.1333 35.6092 85.2154 35.5043 85.3202C35.3995 85.4205 35.322 85.5389 35.2719 85.6757C35.2263 85.8078 35.2036 85.9537 35.2036 86.1132C35.2036 86.2635 35.24 86.4003 35.3129 86.5233C35.3858 86.6418 35.4861 86.7352 35.6137 86.8036C35.7413 86.8719 35.8894 86.9061 36.058 86.9061C36.336 86.9061 36.573 86.8514 36.769 86.7421C36.9695 86.6327 37.1245 86.5005 37.2338 86.3456C37.3432 86.1861 37.3979 86.038 37.3979 85.9012L37.9106 86.7899C37.8286 86.9722 37.7283 87.1613 37.6098 87.3573C37.4913 87.5487 37.3409 87.7287 37.1586 87.8973C36.9763 88.0614 36.7553 88.1958 36.4955 88.3007C36.2403 88.4055 35.9327 88.4579 35.5727 88.4579C35.1078 88.4579 34.6863 88.3645 34.308 88.1776C33.9298 87.9862 33.6267 87.7242 33.3989 87.3915C33.1756 87.0588 33.0639 86.676 33.0639 86.243C33.0639 85.8557 33.1345 85.5116 33.2758 85.2108C33.4171 84.91 33.629 84.6548 33.9116 84.4452C34.1987 84.2356 34.5587 84.0783 34.9916 83.9735C35.4246 83.8641 35.9304 83.8094 36.5092 83.8094H37.5756ZM43.0034 77.8143V88.3212H40.8637V77.8143H43.0034ZM47.6996 80.9247L44.4799 84.6434L42.7778 86.3524L41.9233 84.91L43.3041 83.1259L45.1293 80.9247H47.6996ZM45.4438 88.3212L43.3588 84.9237L44.8901 83.7274L47.8911 88.3212H45.4438ZM52.3481 86.5575V83.3856C52.3481 83.1623 52.3139 82.9709 52.2455 82.8114C52.1772 82.6519 52.0701 82.5266 51.9243 82.4354C51.7784 82.3443 51.5893 82.2987 51.3569 82.2987C51.1609 82.2987 50.99 82.3329 50.8442 82.4012C50.7029 82.4696 50.5935 82.5676 50.5161 82.6952C50.4431 82.8228 50.4067 82.98 50.4067 83.1669H48.2739C48.2739 82.8342 48.3491 82.5243 48.4995 82.2372C48.6498 81.9501 48.864 81.6971 49.142 81.4784C49.4246 81.2596 49.7618 81.091 50.1537 80.9725C50.5457 80.8495 50.9855 80.788 51.4731 80.788C52.0519 80.788 52.5668 80.8859 53.018 81.0819C53.4737 81.2733 53.8338 81.5627 54.0981 81.9501C54.3624 82.3329 54.4946 82.816 54.4946 83.3993V86.496C54.4946 86.9426 54.5196 87.2935 54.5698 87.5487C54.6245 87.7994 54.7019 88.0181 54.8022 88.205V88.3212H52.6489C52.5486 88.107 52.4734 87.8427 52.4233 87.5282C52.3731 87.2092 52.3481 86.8856 52.3481 86.5575ZM52.6147 83.8094L52.6284 84.9852H51.5688C51.3318 84.9852 51.1267 85.0149 50.9536 85.0741C50.7849 85.1333 50.6482 85.2154 50.5434 85.3202C50.4386 85.4205 50.3611 85.5389 50.311 85.6757C50.2654 85.8078 50.2426 85.9537 50.2426 86.1132C50.2426 86.2635 50.2791 86.4003 50.352 86.5233C50.4249 86.6418 50.5252 86.7352 50.6528 86.8036C50.7804 86.8719 50.9285 86.9061 51.0971 86.9061C51.3751 86.9061 51.6121 86.8514 51.808 86.7421C52.0086 86.6327 52.1635 86.5005 52.2729 86.3456C52.3823 86.1861 52.437 86.038 52.437 85.9012L52.9496 86.7899C52.8676 86.9722 52.7674 87.1613 52.6489 87.3573C52.5304 87.5487 52.38 87.7287 52.1977 87.8973C52.0154 88.0614 51.7944 88.1958 51.5346 88.3007C51.2794 88.4055 50.9718 88.4579 50.6118 88.4579C50.1469 88.4579 49.7254 88.3645 49.3471 88.1776C48.9689 87.9862 48.6658 87.7242 48.4379 87.3915C48.2146 87.0588 48.103 86.676 48.103 86.243C48.103 85.8557 48.1736 85.5116 48.3149 85.2108C48.4562 84.91 48.6681 84.6548 48.9506 84.4452C49.2377 84.2356 49.5978 84.0783 50.0307 83.9735C50.4636 83.8641 50.9695 83.8094 51.5483 83.8094H52.6147ZM57.9877 82.5038V88.3212H55.8481V80.9247H57.8578L57.9877 82.5038ZM57.7075 84.3632L57.1743 84.3768C57.1743 83.8208 57.2426 83.3218 57.3793 82.8798C57.5161 82.4377 57.7097 82.0617 57.9604 81.7518C58.2156 81.4374 58.5187 81.1981 58.8696 81.0341C59.225 80.87 59.617 80.788 60.0453 80.788C60.3917 80.788 60.7084 80.8381 60.9955 80.9384C61.2827 81.0386 61.5287 81.2004 61.7338 81.4237C61.9435 81.6425 62.103 81.9341 62.2123 82.2987C62.3217 82.6587 62.3764 83.1031 62.3764 83.6317V88.3212H60.2299V83.6249C60.2299 83.315 60.1866 83.0757 60.1 82.9071C60.0134 82.7385 59.8858 82.62 59.7172 82.5516C59.5532 82.4833 59.3526 82.4491 59.1157 82.4491C58.865 82.4491 58.6508 82.4992 58.4731 82.5995C58.2953 82.6952 58.1495 82.8296 58.0356 83.0028C57.9217 83.176 57.8373 83.3788 57.7827 83.6112C57.7325 83.8436 57.7075 84.0943 57.7075 84.3632Z" fill="white"/>
<defs>
<linearGradient id="paint0_linear_321_425" x1="-2" y1="43.0851" x2="194.664" y2="42.5897" gradientUnits="userSpaceOnUse">
<stop stop-color="#6655D0"/>
<stop offset="0.999256" stop-color="#D9D9D9" stop-opacity="0"/>
</linearGradient>
<linearGradient id="paint1_linear_321_425" x1="167.264" y1="111.414" x2="167.264" y2="75.0738" gradientUnits="userSpaceOnUse">
<stop stop-color="#FFC900"/>
<stop offset="0.2201" stop-color="#FDC500"/>
<stop offset="0.4144" stop-color="#F7BB00"/>
<stop offset="0.5991" stop-color="#EDA900"/>
<stop offset="0.7778" stop-color="#DF8F00"/>
<stop offset="0.9507" stop-color="#CD6F00"/>
<stop offset="1" stop-color="#C76400"/>
</linearGradient>
</defs>
</svg>
