<svg width="347" height="405" viewBox="0 0 347 405" fill="none" xmlns="http://www.w3.org/2000/svg">
<path d="M4 22C4 12.0589 12.0589 4 22 4H327C336.941 4 345 12.0589 345 22V386C345 395.941 336.941 404 327 404H22C12.0589 404 4 395.941 4 386V22Z" fill="#9466B1"/>
<path d="M156.5 202.5C70.5134 360.332 33.1834 280.943 3.4999 229.5L3.49989 3.49997L345 3.49996L345 161C276.905 87.5085 232.255 63.4485 156.5 202.5Z" fill="#E3CEF0" fill-opacity="0.1"/>
<path d="M297.525 133.647L94.6272 261.206L90.9063 267.746C111.512 260.162 112.194 269.733 124.797 268.705C113.706 278.907 106.068 301.465 94.0101 306.926C84.1939 311.38 65.9457 320.091 59.5137 323.172L45.3915 348.169L51.1542 355.302L309.517 209.931L301.491 136.853L297.525 133.647Z" fill="#001C18"/>
<path d="M278.32 307.15C267.725 301.164 265.588 277.353 257.085 266.421C270.051 267.869 278.139 258.487 300.407 270.222L298.499 257.003L83.3421 151.877L24.4123 213.625L21.733 219.138L307.355 355.469L311.962 350.27L308.287 324.837C302.525 321.345 286.859 311.969 278.32 307.15Z" fill="#001C18"/>
<path d="M300.416 270.22L296.444 274.771C291.702 271.6 286.257 269.638 280.583 269.056C271.594 268.303 268.714 272.876 256.199 270.625C255.003 269.891 254.123 268.74 253.727 267.394C253.332 266.048 253.45 264.604 254.058 263.34L280.497 259.107L300.416 270.22Z" fill="#001C18"/>
<path d="M278.32 307.15C267.725 301.164 265.588 277.353 257.085 266.421C270.051 267.869 278.139 258.487 300.407 270.222L298.499 257.003L71.4665 148.813L24.4123 213.625L311.983 350.239L308.308 324.805C302.525 321.345 286.859 311.969 278.32 307.15Z" fill="#332885"/>
<path d="M186.344 203.549L107.538 253.097L175.457 285.368L259.184 238.252L186.344 203.549Z" fill="#001C18"/>
<path d="M90.9063 267.746L94.6827 273.191C94.6827 273.191 100.325 268.47 107.324 270.733C114.324 272.997 120.623 277.064 130.044 272.533C130.592 268.85 129.861 265.091 127.973 261.882C127.973 261.882 104.169 259.351 103.672 259.448C103.174 259.544 90.9063 267.746 90.9063 267.746Z" fill="#001C18"/>
<path d="M94.6272 261.206L90.9063 267.746C111.512 260.162 112.194 269.733 124.797 268.705C113.706 278.907 106.068 301.465 94.0101 306.926C84.1939 311.38 65.9457 320.091 59.5137 323.172L45.3915 348.169L303.979 206.097L297.525 133.647L94.6272 261.206Z" fill="#332885"/>
<path d="M186.034 199.342L91.6134 252.46L160.283 285.237L166.398 281.693L186.034 199.342Z" fill="#001C18"/>
<path d="M186.034 199.342L98.2214 248.747L166.398 281.693L186.034 199.342Z" fill="#001C18"/>
<path d="M29.7517 210.658C29.7517 210.658 148.073 270.106 152.419 272.143C156.765 274.179 165.538 277.502 177.028 271.309C188.517 265.117 299.488 204.016 299.488 204.016L294.101 130.716L292.961 128.953L182.688 188.006L80.9299 139.934L29.341 208.545L29.7517 210.658Z" fill="#001C18"/>
<path d="M29.3411 208.545C29.3411 208.545 147.662 267.994 152.01 270.039C156.358 272.084 165.128 275.389 176.619 269.205C188.11 263.021 297.536 202.829 297.536 202.829L292.969 128.997L182.269 185.849L80.5125 137.786L29.3411 208.545Z" fill="#87D1A4"/>
<path d="M85.2676 135.448L32.4297 207.328L150.751 266.777C150.751 266.777 155.864 263.065 159.845 262.291C163.826 261.517 174.005 267.693 174.005 267.693L292.159 202.062L288.351 128.916L276.582 126.211L184.262 181.14L89.0653 134.71L85.2676 135.448Z" fill="#EFE8C5"/>
<path d="M278.805 126.649C278.964 132.688 279.041 138.726 279.11 144.764L279.195 162.868L279.097 181.008L278.987 190.089L278.779 199.136L278.593 190.112L278.484 181.073L278.39 162.97L278.489 144.831C278.551 138.721 278.629 132.69 278.805 126.649Z" fill="#FFD1A3"/>
<path d="M280.526 127.347C280.773 133.279 281.017 139.193 281.138 145.131L281.525 162.923L281.731 180.713L281.766 189.613L281.685 198.517L281.342 189.623L281.082 180.731L280.705 162.901L280.509 145.109C280.476 139.208 280.456 133.277 280.526 127.347Z" fill="#FFD1A3"/>
<path d="M282.709 127.856C283.019 133.785 283.203 139.72 283.448 145.643L284.004 163.419L284.304 181.228L284.402 190.124L284.421 199.027L284.006 190.138L283.673 181.242L283.151 163.458L282.827 145.664C282.743 139.728 282.684 133.786 282.709 127.856Z" fill="#FFD1A3"/>
<path d="M284.829 128.323C285.183 134.243 285.456 140.17 285.71 146.091L286.374 163.865L286.84 181.641L287.01 190.532L287.098 199.421L286.612 190.537L286.217 181.653L285.553 163.879L285.078 146.105C284.926 140.191 284.85 134.253 284.829 128.323Z" fill="#FFD1A3"/>
<path d="M286.926 128.857C287.337 134.839 287.659 140.829 287.955 146.778L288.773 164.739L289.408 182.736L289.665 191.747L289.834 200.774L289.272 191.823L288.797 182.855L288.022 164.885L287.387 146.888C287.157 140.808 286.995 134.851 286.926 128.857Z" fill="#FFD1A3"/>
<path d="M42.2769 202.288C42.2769 202.288 68.7708 214.416 90.554 221.607C112.337 228.798 154.545 248.916 159.845 262.246C169.364 247.965 181.398 229.562 209.135 221.054C236.873 212.545 271.223 202.118 275.487 198.371C275.558 185.873 276.64 126.137 276.64 126.137C267.383 129.835 257.921 132.996 248.3 135.605C233.46 139.522 188.637 158.436 184.306 181.132C174.212 165.608 162.242 157.533 141.075 152.488C119.908 147.442 89.0653 134.71 89.0653 134.71L42.2769 202.288Z" fill="#FBF9EF"/>
<path d="M159.866 262.26C169.364 247.965 181.398 229.562 209.135 221.054C236.873 212.545 271.223 202.118 275.487 198.371C275.558 185.873 276.64 126.137 276.64 126.137C267.383 129.835 257.921 132.996 248.3 135.605C233.46 139.522 188.637 158.437 184.306 181.132L159.866 262.26Z" fill="#FBF9EF"/>
<path d="M229.625 217.488C178.23 238.577 159.866 262.26 159.866 262.26C163.874 261.481 174.026 267.662 174.026 267.662L292.18 202.03C292.18 202.03 280.821 199.527 275.45 198.415C269.977 203.121 258.767 205.345 229.625 217.488Z" fill="#FBF9EF"/>
<path d="M120.059 229.834C100.748 221.519 42.277 202.288 42.277 202.288L32.3843 207.328L150.706 266.777C150.706 266.777 155.819 263.065 159.8 262.291C159.458 249.438 139.361 238.15 120.059 229.834Z" fill="#FBF9EF"/>
<path d="M120.059 229.834C100.748 221.519 42.277 202.288 42.277 202.288C42.277 202.288 119.108 234.594 128.866 238.74C138.623 242.887 157.745 254.563 159.866 262.26C159.458 249.438 139.361 238.15 120.059 229.834Z" fill="#FCCE98"/>
<path d="M41.7804 205.094C41.7804 205.094 141.464 250.045 159.866 262.26C145.717 249.409 73.2671 216.106 41.7804 205.094Z" fill="#FCCE98"/>
<path d="M38.9082 205.652L53.4844 212.495L68.0305 219.417L97.0645 233.379L126.005 247.514L140.456 254.644L154.857 261.847L140.281 255.004L125.735 248.083L96.7012 234.12L67.7589 219.977L53.3098 212.855L38.9082 205.652Z" fill="#FCCE98"/>
<path d="M163.874 261.481C168.036 258.053 172.308 254.768 176.591 251.489C180.873 248.21 185.256 245.075 189.672 241.97C191.878 240.409 194.1 238.88 196.358 237.4C198.616 235.919 200.877 234.455 203.239 233.09C207.967 230.423 212.849 228.087 217.756 225.829C222.662 223.571 227.657 221.531 232.64 219.484C237.624 217.437 242.608 215.39 247.637 213.434C252.666 211.478 257.628 209.508 262.668 207.468C267.698 205.553 272.62 203.365 277.412 200.914C275.123 202.349 272.748 203.643 270.301 204.788C267.877 205.975 265.421 207.087 262.974 208.206C258.035 210.389 253.079 212.485 248.117 214.6C238.198 218.802 228.213 222.854 218.435 227.319C213.534 229.513 208.659 231.792 203.989 234.385C201.669 235.688 199.387 237.092 197.131 238.581L190.374 242.975C185.888 245.949 181.453 249.004 177.055 252.105C172.657 255.207 168.256 258.346 163.874 261.481Z" fill="#FCCE98"/>
<path d="M168.199 261.782C176.838 255.633 185.728 249.864 194.87 244.475C199.425 241.777 204.055 239.183 208.759 236.692C211.088 235.433 213.47 234.264 215.836 233.061C218.203 231.858 220.614 230.746 223.017 229.635C232.625 225.186 242.182 220.61 251.715 216.003C256.487 213.704 261.243 211.372 265.984 209.007C268.356 207.83 270.727 206.653 273.073 205.436C275.418 204.219 277.783 203.008 280.055 201.642C270.981 207.12 261.451 211.791 251.996 216.564C242.541 221.337 232.964 225.854 223.36 230.375C213.718 234.75 204.341 239.735 195.2 245.009C190.614 247.64 186.072 250.362 181.575 253.175C177.053 255.965 172.588 258.818 168.199 261.782Z" fill="#FCCE98"/>
<path d="M156.374 245.643L155.28 244.351C151.641 240.175 136.66 231.2 122.05 225.442C108.086 219.93 66.7597 203.138 66.3385 202.975L65.3467 202.534L102.734 144.946L103.572 145.299C103.922 145.421 138.516 157.271 152.229 162.841C165.942 168.411 177.842 178.918 177.963 179.03L178.797 179.965L178.71 180.217C178.591 180.585 166.488 216.759 156.614 245.016L156.374 245.643ZM67.1022 202.383C71.6797 204.211 109.182 219.463 122.344 224.669C135.505 229.876 150.646 238.412 155.43 243.308C164.81 216.424 176.106 182.716 177.206 179.422C175.595 178.032 164.567 168.705 151.916 163.563C138.912 158.281 107.081 147.317 103.601 146.145L67.1022 202.383Z" fill="#332885"/>
<path d="M169.845 242.653L168.331 244.931L187.951 177.696L187.994 177.688C188.077 177.554 196.565 164.307 208.065 157.378C225.52 147.381 256.792 137.995 257.105 137.88L259.168 137.261L259.106 137.871L252.446 197.858L252.419 198.135L250.707 198.649C181.237 217.036 169.987 242.408 169.845 242.653ZM188.746 178.058L170.817 239.637C175.774 232.513 194.04 212.889 250.266 197.919C252.042 181.936 256.232 144.11 256.819 138.832C252.415 140.178 224.586 148.867 208.548 158.045C197.526 164.637 189.302 177.144 188.746 178.058Z" fill="#332885"/>
</svg>
