<svg width="34" height="33" viewBox="0 0 34 33" fill="none" xmlns="http://www.w3.org/2000/svg">
<path d="M14.7345 1.60987C15.9306 0.231986 18.0694 0.231984 19.2655 1.60987L21.8905 4.63381C22.4505 5.27896 23.259 5.65475 24.1132 5.66692L28.162 5.72459C30.066 5.7517 31.4633 7.52282 31.0466 9.38082L30.2858 12.7729C30.0842 13.6715 30.3066 14.6129 30.8888 15.3263L33.1018 18.0379C34.3334 19.547 33.8226 21.8115 32.0623 22.6457L28.6681 24.2542C27.8635 24.6355 27.2699 25.3545 27.0477 26.2166L26.124 29.8014C25.6626 31.592 23.7068 32.543 22.0135 31.7999L18.2055 30.129C17.4372 29.7918 16.5628 29.7918 15.7945 30.129L11.9865 31.7999C10.2932 32.543 8.33738 31.592 7.87596 29.8014L6.95226 26.2166C6.73009 25.3545 6.13646 24.6355 5.3319 24.2542L1.93768 22.6457C0.177392 21.8115 -0.333444 19.547 0.898211 18.0379L3.11117 15.3263C3.69344 14.6129 3.91577 13.6715 3.71423 12.7729L2.95344 9.38082C2.53672 7.52282 3.93402 5.7517 5.83799 5.72459L9.88676 5.66692C10.741 5.65475 11.5495 5.27896 12.1095 4.63381L14.7345 1.60987Z" fill="#5D48E2" fill-opacity="0.4"/>
</svg>
